<?xml version="1.0" standalone="no"?>
<!DOCTYPE svg PUBLIC "-//W3C//DTD SVG 20010904//EN"
 "http://www.w3.org/TR/2001/REC-SVG-20010904/DTD/svg10.dtd">
<svg version="1.0" xmlns="http://www.w3.org/2000/svg"
 width="300.000000pt" height="355.000000pt" viewBox="0 0 300.000000 355.000000"
 preserveAspectRatio="xMidYMid meet">

<g transform="translate(0.000000,355.000000) scale(0.100000,-0.100000)"
fill="#000000" stroke="none">
<path d="M1623 3518 c-32 -41 -44 -174 -23 -260 6 -24 19 -95 30 -158 22 -126
55 -275 93 -415 14 -49 35 -126 47 -170 11 -44 27 -98 35 -120 7 -22 28 -89
45 -150 18 -60 43 -143 56 -184 41 -124 83 -111 -370 -111 -253 0 -397 4 -401
10 -3 5 -2 10 3 10 6 0 13 12 17 28 7 27 53 141 80 197 8 17 22 50 30 74 8 24
19 49 23 55 5 6 17 34 27 61 10 28 22 55 27 62 9 11 -25 43 -45 43 -9 0 -129
49 -182 75 -16 8 -42 19 -56 24 -29 11 -24 18 -104 -169 -20 -47 -45 -103 -56
-126 -10 -23 -19 -44 -19 -47 0 -4 -13 -36 -30 -72 -16 -36 -30 -69 -30 -73 0
-4 -8 -23 -19 -42 -10 -19 -24 -52 -30 -72 l-12 -38 -367 -2 -367 -3 -3 -200
-2 -200 95 0 95 0 0 67 c0 58 3 67 20 73 33 10 40 -3 40 -73 l0 -67 92 0 93 0
5 70 c5 67 6 70 30 70 24 0 25 -3 28 -67 3 -59 5 -68 22 -68 31 0 32 -16 5
-75 -14 -31 -25 -58 -25 -61 0 -3 -11 -30 -25 -60 -14 -30 -25 -57 -25 -60 0
-3 -10 -29 -23 -57 -27 -60 -53 -121 -97 -227 -17 -41 -40 -93 -50 -116 -11
-23 -20 -44 -20 -48 0 -9 -51 -130 -80 -192 -11 -23 -20 -44 -20 -47 0 -4 -13
-35 -29 -69 -15 -35 -32 -74 -36 -88 -4 -14 -12 -30 -17 -37 -12 -15 7 -53 27
-53 7 0 20 7 29 15 20 21 26 19 26 -9 0 -39 47 -61 93 -41 13 5 17 2 17 -12 0
-10 10 -24 22 -32 19 -12 24 -11 39 8 23 28 29 27 29 -10 0 -19 4 -29 12 -27
14 5 52 73 69 126 6 20 20 53 30 72 11 19 19 40 19 47 0 7 9 28 20 48 11 20
20 40 20 45 0 5 13 37 29 72 16 35 43 97 60 138 18 41 41 93 51 116 11 23 20
45 20 49 0 4 13 37 30 72 16 34 30 66 30 71 0 4 9 23 19 43 11 19 25 54 32 77
7 23 15 42 19 42 5 0 11 12 15 28 6 25 42 112 83 205 17 37 49 56 71 42 7 -4
11 17 11 64 0 61 3 70 20 76 33 10 40 -3 40 -73 l0 -67 115 0 115 0 0 67 c0
70 7 83 40 73 17 -5 20 -15 20 -71 l0 -64 115 0 115 0 0 70 c0 63 2 70 20 70
18 0 20 -7 20 -69 l0 -70 115 -3 115 -3 0 67 c0 58 3 67 20 73 33 10 40 -3 40
-73 l0 -67 62 3 c35 1 68 -1 73 -5 6 -5 28 -60 49 -123 40 -121 62 -170 74
-170 15 0 88 22 117 34 17 8 55 19 85 26 87 20 92 27 68 113 -33 119 -33 127
-9 127 19 0 21 6 21 64 0 56 3 66 20 71 33 10 40 -3 40 -73 l0 -67 115 0 115
0 0 73 c0 62 2 72 18 72 31 0 37 -14 37 -79 l0 -64 78 -1 77 -1 -2 200 -3 200
-327 3 c-252 2 -328 5 -328 15 0 6 -6 24 -14 39 -8 15 -17 42 -21 60 -4 18
-17 65 -30 103 -13 39 -38 117 -55 175 -52 169 -171 520 -203 600 -3 8 -15 39
-27 68 -75 192 -78 201 -132 307 -86 170 -168 250 -205 203z"/>
<path d="M1273 3131 c-17 -11 -34 -30 -38 -43 -4 -13 -18 -46 -31 -75 -13 -28
-24 -57 -24 -63 0 -6 21 -20 48 -31 26 -11 61 -26 77 -33 132 -60 169 -76 179
-76 7 0 21 24 31 53 10 28 25 63 32 77 34 65 4 127 -75 156 -26 10 -56 23 -67
30 -38 25 -97 27 -132 5z"/>
<path d="M1130 2852 c0 -6 -11 -36 -25 -66 -50 -109 -50 -105 -7 -122 20 -9
55 -24 78 -35 22 -10 43 -19 47 -19 4 0 37 -14 74 -31 45 -20 72 -28 82 -22 7
5 22 31 33 58 10 28 25 64 33 82 18 38 18 43 3 43 -7 0 -35 11 -63 25 -27 13
-53 25 -57 25 -4 0 -37 14 -74 31 -77 35 -124 47 -124 31z"/>
<path d="M2485 1271 c-6 -4 -41 -16 -80 -26 -38 -10 -74 -21 -80 -25 -5 -4
-35 -13 -65 -20 -82 -19 -82 -19 -60 -65 11 -22 36 -76 56 -120 20 -44 47
-103 60 -132 13 -28 24 -56 24 -62 0 -6 20 -3 48 8 26 10 73 24 105 31 31 7
62 20 69 27 12 14 5 68 -37 303 -8 47 -15 86 -15 88 0 5 -17 1 -25 -7z"/>
<path d="M2510 796 c-41 -12 -82 -25 -90 -28 -8 -4 -28 -11 -45 -16 -26 -7
-32 -17 -48 -73 -12 -43 -17 -89 -15 -140 3 -66 9 -87 45 -160 71 -142 240
-349 286 -349 4 0 7 42 7 93 0 87 21 208 39 231 5 6 19 42 32 80 20 61 21 74
10 115 -16 62 -126 272 -141 270 -3 0 -39 -11 -80 -23z"/>
<path d="M114 123 c3 -25 6 -57 6 -70 0 -23 2 -22 50 19 27 24 50 46 50 49 0
3 -25 16 -56 27 l-57 21 7 -46z"/>
</g>
</svg>
